<?xml version="1.0" encoding="UTF-8"?>
<svg id="Layer_2" data-name="Layer 2" xmlns="http://www.w3.org/2000/svg" viewBox="0 0 487.89 627.92">
  <defs>
    <style>
      .cls-1 {
        fill: #fff;
      }
    </style>
  </defs>
  <g id="Layer_1-2" data-name="Layer 1">
    <g id="Layer_2-2" data-name="Layer 2">
      <g id="Layer_1-2" data-name="Layer 1-2">
        <path class="cls-1" d="m327.17,627.92c-7.89.09-15.52-2.82-21.35-8.13l-32.75-30.37c-16.55-14.9-41.69-14.9-58.25,0l-32.75,30.37c-12.17,10.84-30.53,10.84-42.7,0l-32.75-30.37c-16.55-14.9-41.69-14.9-58.25,0-5.8,5.11-13.32,7.83-21.05,7.63-6.94.09-13.73-1.93-19.5-5.78-3.5-2.49-7.66-6.79-7.83-13.28L55.22,206.03c1.43-9.64,2.5-20.11,3.37-32.96C65.63,70.69,154.31-6.59,256.68.44c92.57,6.36,166.26,80.05,172.62,172.62.87,12.85,1.94,23.33,3.37,32.96l55.22,371.97c-.3,11.79-14.33,19.07-27.33,19.07-7.73.2-15.25-2.53-21.05-7.63-16.55-14.9-41.69-14.9-58.25,0l-32.75,30.37c-5.83,5.31-13.46,8.22-21.35,8.13Z"/>
      </g>
    </g>
  </g>
</svg>