
<svg id="ghosts" xmlns="http://www.w3.org/2000/svg" viewBox="0 0 853.14 1288.57">
  <defs>
    <style>
      .cls-1 {
        fill: none;
      }

      .cls-1, .cls-2, .cls-3 {
        stroke-linecap: round;
        stroke-width: 24.34px;
      }

      .cls-1, .cls-2, .cls-3, .cls-4 {
        stroke: #1a4b7f;
      }

      .cls-1, .cls-4 {
        stroke-miterlimit: 10;
      }

      .cls-5, .cls-3 {
        fill: #1a4b7f;
      }

      .cls-2 {
        fill: #f2f2f2;
      }

      .cls-2, .cls-3 {
        stroke-linejoin: round;
      }

      .cls-4 {
        fill: #fff;
        stroke-width: 24px;
      }
    </style>
  </defs>
  <path class="cls-4" d="m278.4,1257.29c13.39,1.08,26.75-3.84,37.38-13.78l59.76-56.89c30.15-27.87,72.86-24.97,98.98,6.71l51.54,64.43c19.21,23.05,50.41,25.16,72.56,4.92l59.76-56.89c30.15-27.87,72.86-24.97,98.98,6.71,9.17,10.87,21.58,17.18,34.74,17.67,11.77.97,23.6-2.27,33.92-9.31,6.29-4.56,13.94-12.68,15.1-25.63l-43.48-749.37c-1.13-19.41-1.53-40.46-1.26-66.23,1.91-205.29-138.33-369.88-313.24-367.62-158.17,2.04-293.36,140.74-316.7,324.92-3.22,25.57-6.45,46.37-10.19,65.46L12.04,1139.04c-1.08,23.58,21.76,39.74,43.86,41.23,13.1,1.29,26.25-3.29,36.8-12.82,30.15-27.87,72.86-24.97,98.98,6.71l51.54,64.43c9.19,11.28,21.76,17.96,35.18,18.69Z"/>
  <g>
    <path class="cls-5" d="m502.65,798.75l43.59,23.49,22-17.27c2.76-2.16,3.83-5.84,2.67-9.15l-6.1-17.42c-.68-1.93-2.05-3.53-3.84-4.5l-26.03-14.03c-1.8-.97-3.89-1.23-5.87-.74l-17.9,4.48c-3.4.85-5.88,3.77-6.17,7.26l-2.33,27.87Z"/>
    <path class="cls-5" d="m504.44,970.95l32.4-131.65-43.27-23.32-92.15,99.44c-3.73,4.03-4.88,9.81-2.97,14.96l20.51,55.19c2.6,6.98,9.97,10.96,17.23,9.29l57.38-13.2c5.35-1.23,9.55-5.37,10.87-10.7Z"/>
  </g>
  <path class="cls-3" d="m84.92,192.14l673.32,39.25s-46.86-191.94-239.79-210.1C325.52,3.13,231.15,167.1,231.15,167.1l-146.4,12.67c-7.66.66-7.5,11.92.17,12.37Z"/>
  <path class="cls-2" d="m524.82,217.78l3.62-7.95c37.03-81.22,156.09-68.75,175.48,18.39h0s-179.1-10.44-179.1-10.44Z"/>
  <rect class="cls-4" x="611.11" y="290.72" width="89.71" height="195.17" rx="44.86" ry="44.86" transform="translate(16.71 -26.93) rotate(2.38)"/>
  <rect class="cls-4" x="420.88" y="272.65" width="89.71" height="195.17" rx="44.86" ry="44.86" transform="translate(30.65 -35.58) rotate(4.52)"/>
  <path class="cls-5" d="m651.91,485.8v-85.41l24.66-16.79-22.19-21.62,5.65-71.18s31.19-1.58,37.07,22.55,1.5,129.49,1.5,129.49c0,0-19.65,53.48-46.68,42.95Z"/>
  <path class="cls-5" d="m455.2,467.44l3.19-85.35,25.27-15.85-21.36-22.44,8.3-70.92s31.22-.41,36.2,23.92c4.98,24.33-3.34,129.46-3.34,129.46,0,0-21.63,52.71-48.26,41.18Z"/>
  <path class="cls-1" d="m506.21,563.57h0c21.39,33.48,68.67,37.67,95.61,8.47l.35-.38"/>
</svg>
